<?xml version="1.0" encoding="utf8" standalone="no"?>
<svg viewBox="0 0 394.41351 554.93317" xmlns="http://www.w3.org/2000/svg" xmlns:xlink="http://www.w3.org/1999/xlink">
<defs>
<filter height="1.5149" id="filter3537" width="1.6155" x="-.30775" y="-.25745">
<feGaussianBlur stdDeviation="13.00579"/>
</filter>
<linearGradient id="linearGradient3534">
<stop offset="0" stop-color="#fff"/>
<stop offset="1" stop-color="#fff" stop-opacity="0"/>
</linearGradient>
<radialGradient cx="457.12711" cy="397.85736" gradientTransform="matrix(-.62972,-1.46358,1.44052,-.6198,-2064.264,1124.5056)" gradientUnits="userSpaceOnUse" id="radialGradient2473" r="197.2068">
<stop offset="0" stop-color="#001651" stop-opacity=".87069"/>
<stop offset="1" stop-color="#0041f1" stop-opacity="0"/>
</radialGradient>
<radialGradient cx="481.38342" cy="658.84564" gradientTransform="matrix(.78727,-.76553,.73085,.7516,-2624.3135,375.07591)" gradientUnits="userSpaceOnUse" id="radialGradient2469" r="189.35699" xlink:href="#linearGradient3534"/>
<radialGradient cx="271.67026" cy="350.62665" gradientTransform="matrix(.73243,.39572,-1.25394,2.32091,-1740.1977,-738.90764)" gradientUnits="userSpaceOnUse" id="radialGradient2471" r="197.2068" xlink:href="#linearGradient3534"/>
</defs>
<g transform="translate(2100.46053,-31.41298)">
<path d="m-1706.047,394.50758c0,105.89487-88.3412,191.83854-197.1903,191.83854s-199.2041-85.96282-197.1902-191.83854c2.6758-142.01921 111.0861-199.86618 197.1902-363.0946 91.4559,157.87667 197.1903,257.19971 197.1903,363.0946z" fill="#0041f1" fill-opacity=".52601" fill-rule="evenodd" opacity=".69855"/>
<path d="m-1712.855,394.06256c0,101.67961-84.8248,184.20234-189.3411,184.20234s-191.2749-82.54101-189.3412-184.20234c2.5693-136.36619 106.6645-191.91063 189.3412-348.64172 87.8154,151.59239 189.3411,246.96191 189.3411,348.64172z" fill="url(#radialGradient2469)" fill-rule="evenodd" opacity=".69855"/>
<path d="m-1716.1485,390.12145c0,100.47062-83.8161,182.012-187.0896,182.012s-189.0003-81.55955-187.0896-182.012c2.5388-134.74455 105.396-189.62843 187.0896-344.4958 56.1021,499.60922 187.0896,244.02517 187.0896,344.4958z" fill="url(#radialGradient2471)" fill-rule="evenodd" opacity=".69855"/>
<path d="m-1706.047,394.50758c0,105.89487-88.3412,191.83854-197.1903,191.83854s-199.2041-85.96282-197.1902-191.83854c2.6758-142.01921 111.0861-199.86618 197.1902-363.0946 91.4559,157.87667 197.1903,257.19971 197.1903,363.0946z" fill="url(#radialGradient2473)" fill-rule="evenodd" opacity=".69855"/>
<path d="m735.71429,328.327a55,35 0 1,1 -110,0 55,35 0 1,1 110,0z" fill="#fff" fill-opacity=".80058" fill-rule="evenodd" filter="url(#filter3537)" opacity=".82319" transform="matrix(.41702,-.49235,.48517,.41724,-2440.769,431.47041)"/>
</g>
</svg>
