<?xml version="1.0" encoding="utf-8"?>
<!-- Generator: Adobe Illustrator 14.0.0, SVG Export Plug-In . SVG Version: 6.00 Build 43363)  -->
<!DOCTYPE svg PUBLIC "-//W3C//DTD SVG 1.1//EN" "http://www.w3.org/Graphics/SVG/1.1/DTD/svg11.dtd">
<svg version="1.1" xmlns="http://www.w3.org/2000/svg" xmlns:xlink="http://www.w3.org/1999/xlink" x="0px" y="0px" width="24px"
	 height="24.781px" viewBox="0 0 24 24.781" enable-background="new 0 0 24 24.781" xml:space="preserve">
<g id="Layer_1">
	<path d="M23.032,21.977h-1.121V2.655c0.334-0.291,0.522-0.696,0.522-1.133C22.434,0.683,21.735,0,20.878,0
		c-0.858,0-1.556,0.683-1.556,1.522c0,0.437,0.188,0.843,0.522,1.133v3.431l-0.248-0.242c-0.153-0.15-0.366-0.236-0.58-0.217
		C18.496,3.495,17.49,2.28,16.237,2.28c-0.151,0-0.307,0.022-0.448,0.063c-4.262,0.67-13.13,2.064-13.657,2.139
		C0.667,4.527-0.001,6.617,0,8.586l0.057,0.19l0.023,0.01c0.031,2.52,0.831,3.904,2.258,3.904l0.147-0.051
		c0.296,0.063,0.814,0.141,1.721,0.276c0.653,0.098,1.423,0.212,2.142,0.311c0.228,0.12,0.605,0.186,0.648,0.192l0.286-0.017
		c1.725,0.293,3.892,0.624,5.834,0.921c0.98,0.15,1.904,0.292,2.656,0.409c0.171,0.046,0.321,0.067,0.47,0.067
		c1.305,0,2.328-1.3,2.828-3.578c0.198-0.005,0.385-0.083,0.526-0.221l0.248-0.242v11.218h-1.122c-0.533,0-0.967,0.425-0.967,0.947
		v0.128c0,0.522,0.434,0.948,0.967,0.948h4.31C23.565,24,24,23.574,24,23.052v-0.128C24,22.401,23.565,21.977,23.032,21.977z
		 M19.326,7.717l0.519,0.507V8.62l-0.504,0.493c0.008-0.191,0.013-0.382,0.013-0.573C19.354,8.272,19.345,7.997,19.326,7.717z
		 M8.986,12.136l-2.09-0.328c-0.344-0.356-0.813-1.441-0.813-3.177c0-2.271,0.692-3.28,0.955-3.28h0.25V5.204
		c0.333-0.062,0.787-0.128,1.279-0.2c0.169-0.024,0.341-0.05,0.515-0.076C8.615,5.892,8.343,7.233,8.343,8.631
		C8.343,9.922,8.579,11.192,8.986,12.136z M11.217,12.37c-0.284,0-1.141-1.326-1.141-3.739c0-2.412,0.856-3.738,1.141-3.738h0.25
		V4.576c0.717-0.135,1.708-0.286,2.752-0.445l0.979-0.151c-0.647,1.089-1.037,2.77-1.037,4.56c0,1.75,0.406,3.46,1.062,4.56
		l-1.046-0.16c-1.028-0.156-2.006-0.304-2.711-0.437V12.37H11.217z M15.658,8.54c0-2.44,0.725-3.899,1.049-4.196
		C17.03,4.641,17.756,6.1,17.756,8.54c0,2.447-0.735,3.923-1.041,4.202C16.395,12.462,15.658,11,15.658,8.54z M5.008,11.511
		c-2.373-0.371-2.677-0.417-2.722-0.417c-0.007,0-0.009,0.001-0.01,0.002c-0.141-0.076-0.64-0.863-0.649-2.508
		c0.01-1.725,0.422-2.502,0.711-2.502l0.251-0.092V5.957c0.284-0.045,0.957-0.15,2.549-0.399C4.778,6.428,4.57,7.541,4.57,8.631
		C4.57,9.712,4.724,10.715,5.008,11.511z"/>
</g>
<g id="Layer_2" display="none">
	<path display="inline" d="M18.322,8.967c0-0.495-0.144-0.955-0.378-1.354h0.01l-2.291-3.936l-2.242,3.854h0.004
		c-0.265,0.416-0.423,0.904-0.423,1.436c0,1.476,1.191,2.67,2.661,2.67C17.131,11.638,18.322,10.443,18.322,8.967z M5.447,16.789
		c0-0.22-0.063-0.425-0.168-0.602h0.005l-1.02-1.752L3.267,16.15h0.002c-0.118,0.185-0.188,0.402-0.188,0.639
		c0,0.656,0.529,1.188,1.184,1.188C4.918,17.978,5.447,17.445,5.447,16.789z M5.447,8.572c0-0.221-0.063-0.426-0.168-0.603h0.005
		l-1.02-1.751L3.267,7.933h0.002C3.15,8.117,3.081,8.335,3.081,8.572c0,0.656,0.529,1.188,1.184,1.188
		C4.918,9.759,5.447,9.228,5.447,8.572z M8.707,19.641c0-0.221-0.063-0.425-0.168-0.602h0.005l-1.02-1.752l-0.998,1.715h0.002
		c-0.117,0.185-0.188,0.401-0.188,0.639c0,0.656,0.53,1.188,1.185,1.188C8.177,20.828,8.707,20.297,8.707,19.641z M7.908,18.512
		 M16.082,0C12.083,0,8.783,2.982,8.25,6.851C7.764,5.057,6.144,3.727,4.206,3.727C1.887,3.727,0,5.622,0,7.95
		c0,2.286,1.821,4.142,4.08,4.211c-2.32,0.862-3.981,3.101-3.981,5.727C0.099,21.258,2.83,24,6.186,24s6.087-2.742,6.087-6.112
		c0-1.667-0.671-3.179-1.752-4.281c1.431,1.417,3.394,2.294,5.562,2.294c4.373,0,7.918-3.56,7.918-7.95S20.455,0,16.082,0z
		 M10.447,13.53c0.001,0.002,0.003,0.004,0.004,0.005C10.45,13.534,10.448,13.532,10.447,13.53L10.447,13.53z M1.104,7.95
		c0-1.718,1.392-3.115,3.103-3.115S7.309,6.232,7.309,7.95s-1.392,3.115-3.103,3.115S1.104,9.668,1.104,7.95z M6.186,22.785
		c-2.688,0-4.877-2.197-4.877-4.897c0-2.699,2.188-4.897,4.877-4.897s4.877,2.198,4.877,4.897
		C11.062,20.588,8.874,22.785,6.186,22.785z M16.082,14.678c-3.694,0-6.699-3.018-6.699-6.728c0-3.709,3.005-6.728,6.699-6.728
		s6.7,3.019,6.7,6.728C22.782,11.66,19.775,14.678,16.082,14.678z"/>
</g>
<g id="Layer_3" display="none">
	<path display="inline" d="M16.723,8.131L12.156,0L7.619,8.008c-0.142,0.453-0.215,0.924-0.215,1.4c0,2.619,2.132,4.75,4.752,4.75
		c2.618,0,4.748-2.131,4.748-4.75C16.904,8.979,16.843,8.549,16.723,8.131z M12.156,12.658c-1.793,0-3.252-1.457-3.252-3.25
		c0-0.614,0.18-1.218,0.518-1.746l0.669-1.154l2.065-3.536l2.139,3.658h-0.023l0.67,1.132c0.307,0.521,0.463,1.074,0.463,1.646
		C15.404,11.201,13.947,12.658,12.156,12.658z M19.354,15.393l3.488,3.486L24,17.721l-5.465-5.466l-5.467,5.466l1.16,1.158
		l3.486-3.486V22.5H6.217l4.715-4.716l-1.158-1.159l-3.488,3.486v-7.857H4.646v7.857L1.16,16.625L0,17.784L4.717,22.5H0V24h24v-1.5
		h-4.646V15.393z"/>
</g>
<g id="Layer_4" display="none">
	<path display="inline" d="M12.697,21.146h-1.83V16.47h1.83V21.146z M16.176,15.673h-1.83v4.684h1.83V15.673z M9.22,15.673H7.391
		v4.684H9.22V15.673z M19.834,5.769C18.957,2.405,15.901,0,12.435,0C9.648,0,7.121,1.509,5.766,3.958
		C5.743,3.958,5.72,3.957,5.696,3.957C2.556,3.957,0,6.543,0,9.722c0,3.163,2.543,5.749,5.67,5.768h1.376v-1.853l-1.369-0.001
		C3.555,13.625,1.83,11.87,1.83,9.722c0-2.158,1.734-3.913,3.866-3.913c0.055,0,0.106,0.004,0.16,0.008l0.987,0.066L7.247,5.08
		c1.001-1.993,2.988-3.23,5.188-3.23c2.728,0,5.121,1.958,5.692,4.653l0.214,1.012l1.021,0.065c1.575,0.099,2.809,1.426,2.809,3.021
		c0,1.664-1.338,3.025-3.04,3.031l-2.612,0.003v1.853h2.655c0.031,0,0.062-0.001,0.094-0.002l0.326-0.002V15.47
		C22.06,15.254,24,13.153,24,10.603C24,8.153,22.197,6.096,19.834,5.769z M15.261,20.935c-0.624,0-1.133,0.513-1.133,1.145
		c0,0.633,0.509,1.146,1.133,1.146s1.133-0.514,1.133-1.146C16.394,21.447,15.885,20.935,15.261,20.935z M11.782,21.71
		c-0.624,0-1.132,0.513-1.132,1.144c0,0.632,0.508,1.146,1.132,1.146c0.625,0,1.133-0.515,1.133-1.146
		C12.915,22.223,12.407,21.71,11.782,21.71z M8.305,20.916c-0.624,0-1.131,0.514-1.131,1.146s0.507,1.146,1.131,1.146
		s1.132-0.514,1.132-1.146S8.929,20.916,8.305,20.916z M8.423,10.672v-1.79H4.258v1.79H8.423z M15.15,12.712h1.525V10.64h2.109
		V9.102h-2.109V6.996H15.15v2.106h-2.109v1.538h2.109V12.712z"/>
</g>
<g id="Layer_5" display="none">
	<path display="inline" d="M24,24.781H0v-1.5h24V24.781L24,24.781z M13.133,17.094V11.52h-1.83v5.574l-1.369-1.371L8.64,17.018
		l3.578,3.578l3.576-3.578l-1.293-1.295L13.133,17.094z M19.834,5.702C18.956,2.377,15.9,0,12.435,0
		C9.648,0,7.121,1.491,5.766,3.911c-0.023,0-0.047,0-0.069,0C2.556,3.911,0,6.466,0,9.607c0,3.124,2.543,5.68,5.67,5.695h3.114
		v-1.827l-3.108-0.002c-2.121-0.011-3.847-1.745-3.847-3.866c0-2.133,1.735-3.868,3.867-3.868c0.048,0,0.096,0.004,0.143,0.007
		l1.005,0.066l0.403-0.793c1.001-1.967,2.988-3.189,5.188-3.189c2.727,0,5.121,1.933,5.692,4.597l0.214,1l1.021,0.064
		c1.575,0.098,2.808,1.41,2.808,2.987c0,1.644-1.337,2.989-2.937,3l-3.584-0.002v1.827h3.523c0.031,0,0.062,0,0.094,0l0.327-0.002
		v-0.016C22.06,15.072,24,12.998,24,10.478C24,8.057,22.196,6.024,19.834,5.702z"/>
</g>
<g id="Layer_6" display="none">
	<path display="inline" d="M11.147,9.086h0.024L6.002,0L0.943,8.897h0.009C0.355,9.856,0,10.984,0,12.212
		c0,3.408,2.686,6.164,6.002,6.164c3.312,0,5.998-2.756,5.998-6.164C12,11.071,11.678,10.007,11.147,9.086z M8.169,13.714H3.832
		v-1.895h4.337V13.714z M23.147,14.71h0.024l-5.17-9.086l-5.059,8.896h0.009C12.355,15.479,12,16.606,12,17.834
		C12,21.242,14.686,24,18.002,24C21.314,24,24,21.242,24,17.834C24,16.692,23.678,15.631,23.147,14.71z M20.992,18.412h-2.197v2.192
		h-1.589v-2.192h-2.198v-1.626h2.198v-2.229h1.589v2.229h2.197V18.412z"/>
</g>
<g id="Layer_7" display="none">
	<path display="inline" d="M16.236,7.209l0.303,0.456c-1.236,0.981-2.607,2.492-4.117,4.532c-1.512,2.042-2.666,3.946-3.463,5.72
		L8.32,18.374c-0.531,0.391-0.893,0.681-1.082,0.869c-0.074-0.286-0.24-0.756-0.494-1.408l-0.242-0.593
		c-0.346-0.854-0.666-1.483-0.963-1.893c-0.299-0.406-0.631-0.678-1-0.813c0.623-0.694,1.193-1.04,1.713-1.04
		c0.443,0,0.938,0.635,1.48,1.908L8,16.044c0.975-1.735,2.227-3.423,3.754-5.061C13.283,9.345,14.777,8.086,16.236,7.209
		 M14.498,11.175c-0.414,0.5-0.836,1.03-1.273,1.622c-0.02,0.025-0.037,0.051-0.057,0.079l0.008,0.013
		c0.572,0.97,0.861,2,0.861,3.06c0,3.332-2.699,6.043-6.016,6.043C4.701,21.991,2,19.28,2,15.948c0-1.157,0.322-2.249,0.957-3.246
		l1.791-3.091L8.021,3.98l3.422,5.877l0.006,0.009c0.492-0.507,0.982-0.977,1.473-1.411L8.021,0l-6.76,11.62h0.012
		C0.475,12.872,0,14.345,0,15.948C0,20.399,3.59,24,8.021,24c4.426,0,8.016-3.601,8.016-8.052c0-1.491-0.432-2.878-1.139-4.083
		L14.498,11.175z"/>
</g>
</svg>
